<svg width="19" height="33" viewBox="0 0 19 33" fill="none" xmlns="http://www.w3.org/2000/svg">
<path d="M17.7175 0.0068662L13.4382 0C8.63057 0 5.52364 3.18763 5.52364 8.12134V11.8658H1.22098C0.849176 11.8658 0.548096 12.1673 0.548096 12.5391V17.9644C0.548096 18.3362 0.849519 18.6373 1.22098 18.6373H5.52364V32.3271C5.52364 32.6989 5.82472 33 6.19652 33H11.8103C12.1821 33 12.4832 32.6986 12.4832 32.3271V18.6373H17.514C17.8858 18.6373 18.1869 18.3362 18.1869 17.9644L18.1889 12.5391C18.1889 12.3605 18.1178 12.1896 17.9919 12.0632C17.8659 11.9369 17.6942 11.8658 17.5157 11.8658H12.4832V8.69158C12.4832 7.16591 12.8467 6.3914 14.8341 6.3914L17.7169 6.39037C18.0883 6.39037 18.3894 6.08895 18.3894 5.71749V0.679754C18.3894 0.308636 18.0887 0.00755282 17.7175 0.0068662Z" fill="#1877F2"/>
</svg>
