<svg width="37" height="36" viewBox="0 0 37 36" fill="none" xmlns="http://www.w3.org/2000/svg">
<path d="M9.6186 35.0662C9.6186 33.7664 9.41036 30.5739 9.40853 29.6282C9.40782 29.2121 9.13069 29.0911 8.79819 28.9823C6.77511 28.3209 5.10844 27.1632 3.92318 25.3301C2.86411 23.6923 2.34261 21.8692 2.12024 19.9468C1.68891 16.2202 1.7223 12.502 2.60153 8.84313C3.37899 5.60706 5.28126 3.36742 8.42213 2.2087C12.1603 0.829367 16.0091 0.807992 19.8971 0.964675C21.7824 1.04063 23.6417 1.26144 25.4532 1.78493C27.3823 2.34234 29.2852 2.99263 30.6524 4.62421C31.6285 5.78906 32.2141 7.16486 32.5939 8.63083C33.4568 11.9609 33.474 15.3381 33.1743 18.7456C33.0291 20.3948 32.843 22.0233 32.2633 23.5743C31.1545 26.5408 29.0181 28.274 26.0203 29.0474C22.5848 29.9335 19.1064 30.2733 15.576 30.1384C15.0871 30.1198 14.7982 30.373 14.5014 30.7064C12.6838 32.4858 9.75426 34.9372 9.6186 35.0662Z" fill="#6F3FAA"/>
<path d="M10.369 35.9651C10.1663 35.9651 9.96194 35.9255 9.76878 35.8441C9.21903 35.6128 8.8635 35.0878 8.8635 34.5074C8.8635 33.859 8.80056 32.6293 8.74488 31.5444C8.71232 30.9092 8.68267 30.3297 8.66535 29.8768C6.37089 29.0825 4.5707 27.7437 3.30998 25.8923C2.19267 24.2516 1.51394 22.3417 1.23492 20.0536C0.726238 15.8795 0.89732 12.1969 1.75822 8.79525C2.68538 5.13203 5.00016 2.6283 8.63829 1.3539C11.3112 0.417641 14.1846 0 17.9554 0C18.8106 0 19.7465 0.0205763 20.9008 0.0647393C23.2182 0.153366 25.1283 0.42276 26.9123 0.912266C29.0523 1.49943 31.2808 2.23033 32.9434 4.11428C33.9901 5.30026 34.7389 6.75593 35.2324 8.5643C36.0415 11.5291 36.2433 14.7977 35.8677 18.8507C35.7162 20.4835 35.5128 22.2189 34.847 23.9104C33.5819 27.1242 31.0927 29.2063 27.449 30.0984C24.3942 30.8467 21.1993 31.226 17.9528 31.2261C17.4814 31.2261 17.0017 31.2181 16.5243 31.2023C16.5066 31.2201 16.4851 31.2422 16.4594 31.2697C16.4362 31.2945 16.4121 31.3183 16.3872 31.3415C14.8573 32.7635 12.5697 34.621 11.7087 35.3201C11.5404 35.4568 11.4251 35.5502 11.3801 35.5882C11.0975 35.8355 10.7359 35.9651 10.369 35.9651ZM17.955 2.91536C14.5495 2.91536 11.9921 3.2792 9.66271 4.09521C6.99373 5.03016 5.36493 6.79457 4.68299 9.48881C3.90929 12.546 3.75977 15.8899 4.22553 19.7117C4.44825 21.5381 4.97103 23.035 5.82416 24.2876C6.7846 25.6978 8.14827 26.6619 9.99336 27.2346C11.3696 27.6619 11.6599 28.5636 11.661 29.2449C11.6618 29.6267 11.7059 30.488 11.7526 31.3999C11.7535 31.4187 11.7546 31.4377 11.7556 31.4565C12.5999 30.75 13.5274 29.9555 14.2646 29.2724C14.5806 28.9373 15.2793 28.2412 16.4951 28.284C16.9815 28.3017 17.4719 28.3108 17.9524 28.3108C20.9499 28.3108 23.8963 27.9614 26.7098 27.2721C29.4206 26.6082 31.1118 25.2101 32.0323 22.8722C32.5619 21.527 32.7297 20.0791 32.8677 18.5901C33.2159 14.8342 33.0468 11.9718 32.3203 9.30884C31.9448 7.93327 31.3995 6.85349 30.6532 6.00787C29.5358 4.74169 27.8574 4.2018 26.0906 3.71711C24.5417 3.29205 22.8546 3.05718 20.7812 2.97779C19.6678 2.93513 18.7695 2.91536 17.955 2.91536Z" fill="#6F3FAA"/>
<path d="M26.1501 21.9497C26.0228 23.0861 25.3986 23.7208 24.7756 24.3268C24.0721 25.0114 23.2347 25.418 22.2332 25.0174C21.464 24.7097 20.7096 24.3589 19.9691 23.9867C17.6437 22.8186 15.6035 21.2572 13.8438 19.3507C11.7593 17.0921 10.1292 14.5458 9.17031 11.6008C8.91961 10.831 9.05096 10.1447 9.65798 9.6169C10.216 9.13161 10.8086 8.67416 11.4349 8.2825C11.8867 8 12.4343 8.02794 12.8458 8.39469C13.9919 9.41572 14.9294 10.6093 15.5372 12.0261C15.7432 12.5065 15.6978 13.0129 15.2271 13.385C14.9967 13.567 14.7796 13.7657 14.5533 13.953C13.9304 14.4683 13.8335 14.8266 14.0828 15.5888C14.6495 17.322 15.8674 18.5219 17.3374 19.4889C17.8335 19.8152 18.413 20.0267 18.9739 20.239C19.4518 20.4198 19.8502 20.2208 20.1574 19.8309C20.3177 19.6275 20.4732 19.4203 20.6375 19.2206C21.1063 18.6511 21.9297 18.4628 22.5422 18.8723C23.6179 19.5911 24.6757 20.341 25.6966 21.1344C25.9539 21.3343 26.0438 21.7485 26.1501 21.9497Z" fill="#EFEFF3"/>
<path d="M28.1561 16.1843C27.7728 16.1843 27.4621 15.848 27.4621 15.4333C27.4621 10.2305 23.551 5.99793 18.744 5.99793C18.3608 5.99793 18.05 5.6616 18.05 5.24689C18.05 4.83217 18.3608 4.49585 18.744 4.49585C24.3164 4.49585 28.85 9.40243 28.85 15.4332C28.85 15.848 28.5395 16.1843 28.1561 16.1843Z" fill="#EFEFF3"/>
<path d="M25.3913 17.0837C24.9723 17.0837 24.6327 16.7444 24.6327 16.3259C24.6327 12.6218 21.6162 9.60803 17.9085 9.60803C17.4896 9.60803 17.1499 9.26864 17.1499 8.85016C17.1499 8.43167 17.4896 8.09229 17.9085 8.09229C22.4528 8.09229 26.1499 11.7857 26.1499 16.3258C26.1499 16.7444 25.8104 17.0837 25.3913 17.0837Z" fill="#EFEFF3"/>
<path d="M21.8886 17.0837C21.5233 17.0837 21.2272 16.7879 21.2272 16.423C21.2272 14.5412 19.6948 13.0102 17.8113 13.0102C17.4461 13.0102 17.1499 12.7143 17.1499 12.3495C17.1499 11.9846 17.4461 11.6887 17.8113 11.6887C20.4241 11.6887 22.5499 13.8125 22.5499 16.4229C22.5499 16.7879 22.2539 17.0837 21.8886 17.0837Z" fill="#EFEFF3"/>
</svg>
